<svg width="124" height="31" viewBox="0 0 124 31" fill="none" xmlns="http://www.w3.org/2000/svg">
<path fill-rule="evenodd" clip-rule="evenodd" d="M32.2826 15.7941H30.9913C29.7 15.063 24.5348 6.43658 24.3913 4.68205L25.3239 3.14684C25.5391 2.78131 25.3957 2.34268 25.1087 2.12337C24.75 1.90405 24.3196 2.05026 24.1043 2.34268L23.3152 3.73168L23.2435 3.80479C22.6696 4.09721 20.3739 4.46274 16.5 4.46274C12.6261 4.46274 10.3304 4.09721 9.82826 3.80479L9.75652 3.73168L8.96739 2.34268C8.75217 1.97715 8.32174 1.90405 7.96304 2.12337C7.60435 2.34268 7.53261 2.78131 7.74783 3.14684L8.6087 4.68205C8.46522 6.43658 3.3 15.063 2.0087 15.7941H0.717391C0.286957 15.7941 0 16.0865 0 16.5251C0 16.9638 0.286957 17.2562 0.717391 17.2562H2.0087C3.3 17.9872 8.46522 26.6137 8.6087 28.3682L7.67609 29.9034C7.46087 30.2689 7.60435 30.7076 7.8913 30.9269C8.03478 31 8.10652 31 8.25 31C8.46522 31 8.75217 30.8538 8.89565 30.6345L9.68478 29.2455L9.75652 29.1724C10.187 28.8799 12.4826 28.5875 16.4283 28.5875C20.3739 28.5875 22.5978 28.953 23.1 29.1724L23.1717 29.2455L23.9609 30.6345C24.1043 30.8538 24.3196 31 24.6065 31C24.75 31 24.8935 31 24.9652 30.9269C25.3239 30.7076 25.3957 30.2689 25.1804 29.9034L24.3913 28.3682C24.5348 26.6137 29.7 17.9141 30.9913 17.2562H32.2826C32.713 17.2562 33 16.9638 33 16.5251C33 16.0865 32.713 15.7941 32.2826 15.7941ZM25.1804 9.94564C25.8261 11.1153 27.4761 13.9664 28.9826 15.7941H25.2522C24.3913 15.2092 21.6652 10.896 21.3065 9.72633L23.3152 6.29037C23.7457 7.16764 24.3196 8.33732 25.1804 9.94564ZM17.7913 17.2562L20.4457 21.7887C20.5891 21.5694 20.7326 21.277 20.8761 20.9846C20.9478 20.8383 22.0957 18.7183 23.3152 17.2562H17.7913ZM12.1239 20.9846C12.0522 20.8383 10.8326 18.7183 9.68478 17.2562H15.2087L12.5543 21.7887C12.4109 21.5694 12.2674 21.277 12.1239 20.9846L12.1239 20.9846ZM15.2087 15.7941L12.5543 11.2615C12.4109 11.4809 12.2674 11.7733 12.1239 12.0657L12.1239 12.0657C12.0522 12.2119 10.9043 14.332 9.68478 15.7941H15.2087ZM13.8457 10.6036C14.4913 10.6767 15.3522 10.7498 16.5 10.7498C17.6478 10.7498 18.5087 10.6767 19.1543 10.6036L16.5 15.1361L13.8457 10.6036ZM19.1543 22.4467L16.5 17.9141L13.8457 22.4467C14.4913 22.3736 15.3522 22.3005 16.5 22.3005C17.6478 22.3005 18.5087 22.3736 19.1543 22.4467ZM17.7913 15.7941L20.4457 11.2615C20.5891 11.4809 20.7326 11.7733 20.8761 12.0657C20.9478 12.2119 22.1674 14.332 23.3152 15.7941H17.7913ZM22.1674 5.63242C21.0196 5.77864 19.2261 5.92485 16.5 5.92485C13.7739 5.92485 11.9804 5.77864 10.8326 5.55932L12.8413 8.99527C13.2 9.14148 14.4913 9.28769 16.5 9.28769C18.5087 9.28769 19.8 9.14148 20.1587 8.99527L22.1674 5.63242ZM7.81956 9.94564C8.75217 8.33732 9.25435 7.16764 9.61304 6.29037L11.6217 9.72633C11.3348 10.896 8.53696 15.2092 7.67609 15.7941H4.01739C5.52391 14.0395 7.17391 11.1153 7.81956 9.94564ZM4.01739 17.2562C5.52391 19.0838 7.17391 21.9349 7.81956 23.1046C8.68043 24.7129 9.25435 25.8826 9.61304 26.7599L11.6935 23.3239C11.3348 22.1542 8.6087 17.841 7.74783 17.2562H4.01739ZM16.5 27.1254C13.7739 27.1254 11.9804 27.2716 10.8326 27.4178L12.8413 24.055C13.2 23.9088 14.4913 23.7626 16.5 23.7626C18.5087 23.7626 19.8 23.9088 20.1587 24.055L22.1674 27.4178C21.0196 27.2716 19.2261 27.1254 16.5 27.1254ZM23.387 26.7599C23.7457 25.8826 24.2478 24.7129 25.1804 23.1046C25.8261 21.9349 27.4761 19.0107 29.0543 17.2562H25.3239C24.463 17.841 21.6652 22.1542 21.3783 23.3239L23.387 26.7599Z" fill="#FC5C42"/>
<path d="M44.3301 24L49.0527 16.9922L44.5332 10.1875H48.9639L51.2744 14.1992L53.5342 10.1875H57.8379L53.293 16.9287L58.0156 24H53.5088L51.1221 19.8486L48.7227 24H44.3301ZM70.9902 11.2412C70.9902 10.2679 70.7321 9.57389 70.2158 9.15918C69.708 8.74447 68.9928 8.53711 68.0703 8.53711H64.4268V14.0469H68.0703C68.9928 14.0469 69.708 13.8226 70.2158 13.374C70.7321 12.9255 70.9902 12.2145 70.9902 11.2412ZM74.8623 11.2158C74.8623 13.4248 74.3037 14.9863 73.1865 15.9004C72.0693 16.8145 70.474 17.2715 68.4004 17.2715H64.4268V24H60.542V5.28711H68.6924C70.5713 5.28711 72.0693 5.76953 73.1865 6.73438C74.3037 7.69922 74.8623 9.19303 74.8623 11.2158ZM81.2227 8.51172H77.5537V5.17285H81.2227V8.51172ZM77.5537 10.1621H81.2227V24H77.5537V10.1621ZM89.8428 9.83203C90.6807 9.83203 91.4255 10.0182 92.0771 10.3906C92.7288 10.7546 93.2578 11.2624 93.6641 11.9141V5.3125H97.333V24H93.8164V22.083C93.3001 22.904 92.7119 23.5007 92.0518 23.873C91.3916 24.2454 90.5706 24.4316 89.5889 24.4316C87.9723 24.4316 86.6097 23.7799 85.501 22.4766C84.4007 21.1647 83.8506 19.4847 83.8506 17.4365C83.8506 15.0752 84.3923 13.2174 85.4756 11.8633C86.5674 10.5091 88.0231 9.83203 89.8428 9.83203ZM90.6299 21.3848C91.654 21.3848 92.4326 21.0039 92.9658 20.2422C93.499 19.4805 93.7656 18.4945 93.7656 17.2842C93.7656 15.5915 93.3382 14.3812 92.4834 13.6533C91.9587 13.2132 91.3493 12.9932 90.6553 12.9932C89.5973 12.9932 88.8187 13.3952 88.3193 14.1992C87.8285 14.9948 87.583 15.985 87.583 17.1699C87.583 18.4479 87.8327 19.472 88.332 20.2422C88.8398 21.0039 89.6058 21.3848 90.6299 21.3848ZM106.093 12.7773C105.255 12.7773 104.603 13.0397 104.138 13.5645C103.681 14.0892 103.393 14.8001 103.274 15.6973H108.898C108.839 14.7409 108.547 14.0173 108.022 13.5264C107.506 13.027 106.863 12.7773 106.093 12.7773ZM106.093 9.79395C107.244 9.79395 108.281 10.0098 109.203 10.4414C110.126 10.873 110.887 11.5544 111.488 12.4854C112.03 13.3063 112.381 14.2585 112.542 15.3418C112.635 15.9766 112.673 16.8906 112.656 18.084H103.186C103.236 19.472 103.672 20.4453 104.493 21.0039C104.993 21.3509 105.593 21.5244 106.296 21.5244C107.041 21.5244 107.646 21.3128 108.111 20.8896C108.365 20.6611 108.59 20.3438 108.784 19.9375H112.479C112.385 20.7585 111.958 21.5921 111.196 22.4385C110.011 23.7842 108.353 24.457 106.22 24.457C104.459 24.457 102.906 23.89 101.561 22.7559C100.215 21.6217 99.542 19.7767 99.542 17.2207C99.542 14.8255 100.147 12.9889 101.357 11.7109C102.576 10.4329 104.155 9.79395 106.093 9.79395ZM122.622 9.83203C122.69 9.83203 122.745 9.83626 122.787 9.84473C122.838 9.84473 122.944 9.84896 123.104 9.85742V13.5645C122.876 13.5391 122.673 13.5221 122.495 13.5137C122.317 13.5052 122.174 13.501 122.063 13.501C120.608 13.501 119.63 13.9749 119.131 14.9229C118.852 15.4561 118.712 16.277 118.712 17.3857V24H115.068V10.1621H118.521V12.5742C119.08 11.6517 119.567 11.0212 119.981 10.6826C120.659 10.1156 121.539 9.83203 122.622 9.83203Z" fill="white"/>
</svg>
